<mxfile host="app.diagrams.net" agent="Mozilla/5.0 (Windows NT 10.0; Win64; x64) AppleWebKit/537.36 (KHTML, like Gecko) Chrome/128.0.0.0 Safari/537.36 OPR/114.0.0.0" version="24.8.3">
  <diagram id="C5RBs43oDa-KdzZeNtuy" name="Page-1">
    <mxGraphModel dx="1283" dy="567" grid="1" gridSize="10" guides="1" tooltips="1" connect="1" arrows="1" fold="1" page="1" pageScale="1" pageWidth="827" pageHeight="1169" math="0" shadow="0">
      <root>
        <mxCell id="WIyWlLk6GJQsqaUBKTNV-0" />
        <mxCell id="WIyWlLk6GJQsqaUBKTNV-1" parent="WIyWlLk6GJQsqaUBKTNV-0" />
        <mxCell id="T0vc6EYNenZj_TDjWAiG-0" style="edgeStyle=orthogonalEdgeStyle;rounded=0;orthogonalLoop=1;jettySize=auto;html=1;exitX=0.5;exitY=1;exitDx=0;exitDy=0;entryX=0.5;entryY=0;entryDx=0;entryDy=0;" edge="1" parent="WIyWlLk6GJQsqaUBKTNV-1" source="T0vc6EYNenZj_TDjWAiG-1" target="T0vc6EYNenZj_TDjWAiG-6">
          <mxGeometry relative="1" as="geometry" />
        </mxCell>
        <mxCell id="T0vc6EYNenZj_TDjWAiG-1" value="SelectProject" style="rounded=0;whiteSpace=wrap;html=1;fillColor=#dae8fc;strokeColor=#6c8ebf;" vertex="1" parent="WIyWlLk6GJQsqaUBKTNV-1">
          <mxGeometry x="70" y="110" width="150" height="40" as="geometry" />
        </mxCell>
        <mxCell id="T0vc6EYNenZj_TDjWAiG-3" style="edgeStyle=orthogonalEdgeStyle;rounded=0;orthogonalLoop=1;jettySize=auto;html=1;entryX=0.56;entryY=0.038;entryDx=0;entryDy=0;entryPerimeter=0;" edge="1" parent="WIyWlLk6GJQsqaUBKTNV-1" source="T0vc6EYNenZj_TDjWAiG-4" target="T0vc6EYNenZj_TDjWAiG-11">
          <mxGeometry relative="1" as="geometry">
            <mxPoint x="650" y="260" as="targetPoint" />
            <Array as="points">
              <mxPoint x="653" y="155" />
            </Array>
          </mxGeometry>
        </mxCell>
        <mxCell id="T0vc6EYNenZj_TDjWAiG-4" value="IsAuthorized Owner" style="rhombus;whiteSpace=wrap;html=1;fillColor=#f5f5f5;fontColor=#333333;strokeColor=#666666;rounded=0;" vertex="1" parent="WIyWlLk6GJQsqaUBKTNV-1">
          <mxGeometry x="520" y="110" width="90" height="90" as="geometry" />
        </mxCell>
        <mxCell id="T0vc6EYNenZj_TDjWAiG-5" style="edgeStyle=orthogonalEdgeStyle;rounded=0;orthogonalLoop=1;jettySize=auto;html=1;entryX=0;entryY=0;entryDx=0;entryDy=0;" edge="1" parent="WIyWlLk6GJQsqaUBKTNV-1" target="T0vc6EYNenZj_TDjWAiG-4">
          <mxGeometry relative="1" as="geometry">
            <Array as="points">
              <mxPoint x="220" y="280" />
              <mxPoint x="290" y="280" />
              <mxPoint x="290" y="133" />
            </Array>
            <mxPoint x="230" y="280" as="sourcePoint" />
          </mxGeometry>
        </mxCell>
        <mxCell id="T0vc6EYNenZj_TDjWAiG-6" value="SelectTask" style="rounded=0;whiteSpace=wrap;html=1;fillColor=#dae8fc;strokeColor=#6c8ebf;" vertex="1" parent="WIyWlLk6GJQsqaUBKTNV-1">
          <mxGeometry x="70" y="190" width="150" height="40" as="geometry" />
        </mxCell>
        <mxCell id="T0vc6EYNenZj_TDjWAiG-9" value="No" style="text;html=1;align=center;verticalAlign=middle;whiteSpace=wrap;rounded=0;" vertex="1" parent="WIyWlLk6GJQsqaUBKTNV-1">
          <mxGeometry x="480" y="370" width="60" height="30" as="geometry" />
        </mxCell>
        <mxCell id="T0vc6EYNenZj_TDjWAiG-10" style="edgeStyle=orthogonalEdgeStyle;rounded=0;orthogonalLoop=1;jettySize=auto;html=1;exitX=0.5;exitY=1;exitDx=0;exitDy=0;entryX=0.5;entryY=0;entryDx=0;entryDy=0;" edge="1" parent="WIyWlLk6GJQsqaUBKTNV-1" source="T0vc6EYNenZj_TDjWAiG-11" target="T0vc6EYNenZj_TDjWAiG-13">
          <mxGeometry relative="1" as="geometry">
            <Array as="points">
              <mxPoint x="645" y="340" />
              <mxPoint x="565" y="340" />
            </Array>
          </mxGeometry>
        </mxCell>
        <mxCell id="T0vc6EYNenZj_TDjWAiG-11" value="ValidationCheck" style="rounded=0;whiteSpace=wrap;html=1;fillColor=#dae8fc;strokeColor=#6c8ebf;" vertex="1" parent="WIyWlLk6GJQsqaUBKTNV-1">
          <mxGeometry x="580" y="270" width="130" height="40" as="geometry" />
        </mxCell>
        <mxCell id="T0vc6EYNenZj_TDjWAiG-13" value="IsValid" style="rhombus;whiteSpace=wrap;html=1;fillColor=#f5f5f5;fontColor=#333333;strokeColor=#666666;rounded=0;" vertex="1" parent="WIyWlLk6GJQsqaUBKTNV-1">
          <mxGeometry x="525" y="360" width="80" height="80" as="geometry" />
        </mxCell>
        <mxCell id="T0vc6EYNenZj_TDjWAiG-14" value="Yes" style="text;html=1;align=center;verticalAlign=middle;whiteSpace=wrap;rounded=0;" vertex="1" parent="WIyWlLk6GJQsqaUBKTNV-1">
          <mxGeometry x="590" y="160" width="60" height="30" as="geometry" />
        </mxCell>
        <mxCell id="T0vc6EYNenZj_TDjWAiG-80" style="edgeStyle=orthogonalEdgeStyle;rounded=0;orthogonalLoop=1;jettySize=auto;html=1;entryX=0.5;entryY=1;entryDx=0;entryDy=0;" edge="1" parent="WIyWlLk6GJQsqaUBKTNV-1" source="T0vc6EYNenZj_TDjWAiG-18" target="T0vc6EYNenZj_TDjWAiG-21">
          <mxGeometry relative="1" as="geometry">
            <Array as="points">
              <mxPoint x="655" y="770" />
              <mxPoint x="145" y="770" />
            </Array>
          </mxGeometry>
        </mxCell>
        <mxCell id="T0vc6EYNenZj_TDjWAiG-18" value="FormatResultSet" style="rounded=0;whiteSpace=wrap;html=1;fillColor=#d5e8d4;strokeColor=#82b366;" vertex="1" parent="WIyWlLk6GJQsqaUBKTNV-1">
          <mxGeometry x="590" y="650" width="130" height="40" as="geometry" />
        </mxCell>
        <mxCell id="T0vc6EYNenZj_TDjWAiG-20" value="ErrorMessageView" style="rounded=0;whiteSpace=wrap;html=1;fillColor=#dae8fc;strokeColor=#6c8ebf;" vertex="1" parent="WIyWlLk6GJQsqaUBKTNV-1">
          <mxGeometry x="70" y="430" width="150" height="40" as="geometry" />
        </mxCell>
        <mxCell id="T0vc6EYNenZj_TDjWAiG-21" value="TaskView" style="rounded=0;whiteSpace=wrap;html=1;fillColor=#dae8fc;strokeColor=#6c8ebf;" vertex="1" parent="WIyWlLk6GJQsqaUBKTNV-1">
          <mxGeometry x="70" y="570" width="150" height="40" as="geometry" />
        </mxCell>
        <mxCell id="T0vc6EYNenZj_TDjWAiG-22" value="" style="endArrow=none;dashed=1;html=1;dashPattern=1 3;strokeWidth=2;rounded=0;" edge="1" parent="WIyWlLk6GJQsqaUBKTNV-1">
          <mxGeometry width="50" height="50" relative="1" as="geometry">
            <mxPoint x="370" y="50" as="sourcePoint" />
            <mxPoint x="370" y="790" as="targetPoint" />
          </mxGeometry>
        </mxCell>
        <mxCell id="T0vc6EYNenZj_TDjWAiG-23" value="&lt;h1 style=&quot;margin-top: 0px;&quot;&gt;User&lt;/h1&gt;" style="text;html=1;whiteSpace=wrap;overflow=hidden;rounded=0;" vertex="1" parent="WIyWlLk6GJQsqaUBKTNV-1">
          <mxGeometry x="70" y="40" width="180" height="50" as="geometry" />
        </mxCell>
        <mxCell id="T0vc6EYNenZj_TDjWAiG-24" value="&lt;h1 style=&quot;margin-top: 0px;&quot;&gt;Software&lt;/h1&gt;" style="text;html=1;whiteSpace=wrap;overflow=hidden;rounded=0;" vertex="1" parent="WIyWlLk6GJQsqaUBKTNV-1">
          <mxGeometry x="400" y="40" width="180" height="50" as="geometry" />
        </mxCell>
        <mxCell id="T0vc6EYNenZj_TDjWAiG-25" style="edgeStyle=orthogonalEdgeStyle;orthogonalLoop=1;jettySize=auto;html=1;entryX=0;entryY=0.5;entryDx=0;entryDy=0;" edge="1" parent="WIyWlLk6GJQsqaUBKTNV-1" source="T0vc6EYNenZj_TDjWAiG-26" target="T0vc6EYNenZj_TDjWAiG-1">
          <mxGeometry relative="1" as="geometry" />
        </mxCell>
        <mxCell id="T0vc6EYNenZj_TDjWAiG-26" value="" style="shape=waypoint;sketch=0;fillStyle=solid;size=6;pointerEvents=1;points=[];fillColor=none;resizable=0;rotatable=0;perimeter=centerPerimeter;snapToPoint=1;" vertex="1" parent="WIyWlLk6GJQsqaUBKTNV-1">
          <mxGeometry x="10" y="120" width="20" height="20" as="geometry" />
        </mxCell>
        <mxCell id="T0vc6EYNenZj_TDjWAiG-27" value="" style="shape=waypoint;sketch=0;fillStyle=solid;size=6;pointerEvents=1;points=[];fillColor=none;resizable=0;rotatable=0;perimeter=centerPerimeter;snapToPoint=1;" vertex="1" parent="WIyWlLk6GJQsqaUBKTNV-1">
          <mxGeometry x="10" y="440" width="20" height="20" as="geometry" />
        </mxCell>
        <mxCell id="T0vc6EYNenZj_TDjWAiG-28" value="" style="shape=waypoint;sketch=0;fillStyle=solid;size=6;pointerEvents=1;points=[];fillColor=none;resizable=0;rotatable=0;perimeter=centerPerimeter;snapToPoint=1;" vertex="1" parent="WIyWlLk6GJQsqaUBKTNV-1">
          <mxGeometry x="10" y="580" width="20" height="20" as="geometry" />
        </mxCell>
        <mxCell id="T0vc6EYNenZj_TDjWAiG-29" style="edgeStyle=orthogonalEdgeStyle;orthogonalLoop=1;jettySize=auto;html=1;exitX=0;exitY=0.5;exitDx=0;exitDy=0;entryX=0.836;entryY=0.588;entryDx=0;entryDy=0;entryPerimeter=0;" edge="1" parent="WIyWlLk6GJQsqaUBKTNV-1" source="T0vc6EYNenZj_TDjWAiG-21" target="T0vc6EYNenZj_TDjWAiG-28">
          <mxGeometry relative="1" as="geometry" />
        </mxCell>
        <mxCell id="T0vc6EYNenZj_TDjWAiG-30" style="edgeStyle=orthogonalEdgeStyle;orthogonalLoop=1;jettySize=auto;html=1;exitX=0;exitY=0.5;exitDx=0;exitDy=0;entryX=0.836;entryY=0.497;entryDx=0;entryDy=0;entryPerimeter=0;" edge="1" parent="WIyWlLk6GJQsqaUBKTNV-1" source="T0vc6EYNenZj_TDjWAiG-20" target="T0vc6EYNenZj_TDjWAiG-27">
          <mxGeometry relative="1" as="geometry" />
        </mxCell>
        <mxCell id="T0vc6EYNenZj_TDjWAiG-62" value="SubmitChanges" style="rounded=0;whiteSpace=wrap;html=1;fillColor=#dae8fc;strokeColor=#6c8ebf;" vertex="1" parent="WIyWlLk6GJQsqaUBKTNV-1">
          <mxGeometry x="70" y="260" width="150" height="40" as="geometry" />
        </mxCell>
        <mxCell id="T0vc6EYNenZj_TDjWAiG-81" style="edgeStyle=orthogonalEdgeStyle;rounded=0;orthogonalLoop=1;jettySize=auto;html=1;entryX=0.5;entryY=0;entryDx=0;entryDy=0;" edge="1" parent="WIyWlLk6GJQsqaUBKTNV-1" source="T0vc6EYNenZj_TDjWAiG-66" target="T0vc6EYNenZj_TDjWAiG-68">
          <mxGeometry relative="1" as="geometry">
            <Array as="points">
              <mxPoint x="650" y="520" />
              <mxPoint x="565" y="520" />
            </Array>
          </mxGeometry>
        </mxCell>
        <mxCell id="T0vc6EYNenZj_TDjWAiG-66" value="UpdateDatabase" style="rounded=0;whiteSpace=wrap;html=1;fillColor=#dae8fc;strokeColor=#6c8ebf;" vertex="1" parent="WIyWlLk6GJQsqaUBKTNV-1">
          <mxGeometry x="580" y="460" width="130" height="40" as="geometry" />
        </mxCell>
        <mxCell id="T0vc6EYNenZj_TDjWAiG-71" style="edgeStyle=orthogonalEdgeStyle;rounded=0;orthogonalLoop=1;jettySize=auto;html=1;exitX=1;exitY=0.5;exitDx=0;exitDy=0;entryX=0.5;entryY=0;entryDx=0;entryDy=0;" edge="1" parent="WIyWlLk6GJQsqaUBKTNV-1" source="T0vc6EYNenZj_TDjWAiG-68" target="T0vc6EYNenZj_TDjWAiG-18">
          <mxGeometry relative="1" as="geometry" />
        </mxCell>
        <mxCell id="T0vc6EYNenZj_TDjWAiG-68" value="DbError" style="rhombus;whiteSpace=wrap;html=1;fillColor=#f5f5f5;fontColor=#333333;strokeColor=#666666;rounded=0;" vertex="1" parent="WIyWlLk6GJQsqaUBKTNV-1">
          <mxGeometry x="525" y="530" width="80" height="80" as="geometry" />
        </mxCell>
        <mxCell id="T0vc6EYNenZj_TDjWAiG-69" style="edgeStyle=orthogonalEdgeStyle;rounded=0;orthogonalLoop=1;jettySize=auto;html=1;exitX=1;exitY=0.5;exitDx=0;exitDy=0;entryX=0.567;entryY=-0.079;entryDx=0;entryDy=0;entryPerimeter=0;" edge="1" parent="WIyWlLk6GJQsqaUBKTNV-1" source="T0vc6EYNenZj_TDjWAiG-13" target="T0vc6EYNenZj_TDjWAiG-66">
          <mxGeometry relative="1" as="geometry" />
        </mxCell>
        <mxCell id="T0vc6EYNenZj_TDjWAiG-70" value="Yes" style="text;html=1;align=center;verticalAlign=middle;whiteSpace=wrap;rounded=0;" vertex="1" parent="WIyWlLk6GJQsqaUBKTNV-1">
          <mxGeometry x="590" y="370" width="60" height="30" as="geometry" />
        </mxCell>
        <mxCell id="T0vc6EYNenZj_TDjWAiG-73" value="Yes" style="text;html=1;align=center;verticalAlign=middle;whiteSpace=wrap;rounded=0;" vertex="1" parent="WIyWlLk6GJQsqaUBKTNV-1">
          <mxGeometry x="480" y="540" width="60" height="30" as="geometry" />
        </mxCell>
        <mxCell id="T0vc6EYNenZj_TDjWAiG-74" value="No" style="text;html=1;align=center;verticalAlign=middle;whiteSpace=wrap;rounded=0;" vertex="1" parent="WIyWlLk6GJQsqaUBKTNV-1">
          <mxGeometry x="600" y="540" width="60" height="30" as="geometry" />
        </mxCell>
        <mxCell id="T0vc6EYNenZj_TDjWAiG-79" style="edgeStyle=orthogonalEdgeStyle;rounded=0;orthogonalLoop=1;jettySize=auto;html=1;entryX=0.5;entryY=1;entryDx=0;entryDy=0;exitX=0.398;exitY=0.973;exitDx=0;exitDy=0;exitPerimeter=0;" edge="1" parent="WIyWlLk6GJQsqaUBKTNV-1" source="T0vc6EYNenZj_TDjWAiG-75" target="T0vc6EYNenZj_TDjWAiG-20">
          <mxGeometry relative="1" as="geometry">
            <Array as="points">
              <mxPoint x="477" y="730" />
              <mxPoint x="280" y="730" />
              <mxPoint x="280" y="520" />
              <mxPoint x="145" y="520" />
            </Array>
          </mxGeometry>
        </mxCell>
        <mxCell id="T0vc6EYNenZj_TDjWAiG-75" value="ErrorResponse" style="rounded=0;whiteSpace=wrap;html=1;fillColor=#f8cecc;strokeColor=#b85450;" vertex="1" parent="WIyWlLk6GJQsqaUBKTNV-1">
          <mxGeometry x="425" y="650" width="130" height="40" as="geometry" />
        </mxCell>
        <mxCell id="T0vc6EYNenZj_TDjWAiG-76" style="edgeStyle=orthogonalEdgeStyle;rounded=0;orthogonalLoop=1;jettySize=auto;html=1;entryX=0.391;entryY=-0.008;entryDx=0;entryDy=0;entryPerimeter=0;" edge="1" parent="WIyWlLk6GJQsqaUBKTNV-1" source="T0vc6EYNenZj_TDjWAiG-4" target="T0vc6EYNenZj_TDjWAiG-75">
          <mxGeometry relative="1" as="geometry">
            <Array as="points">
              <mxPoint x="476" y="155" />
            </Array>
          </mxGeometry>
        </mxCell>
        <mxCell id="T0vc6EYNenZj_TDjWAiG-77" style="edgeStyle=orthogonalEdgeStyle;rounded=0;orthogonalLoop=1;jettySize=auto;html=1;exitX=0.75;exitY=1;exitDx=0;exitDy=0;entryX=0;entryY=1;entryDx=0;entryDy=0;" edge="1" parent="WIyWlLk6GJQsqaUBKTNV-1" source="T0vc6EYNenZj_TDjWAiG-9" target="T0vc6EYNenZj_TDjWAiG-9">
          <mxGeometry relative="1" as="geometry">
            <Array as="points">
              <mxPoint x="500" y="400" />
              <mxPoint x="500" y="400" />
            </Array>
          </mxGeometry>
        </mxCell>
        <mxCell id="T0vc6EYNenZj_TDjWAiG-78" style="edgeStyle=orthogonalEdgeStyle;rounded=0;orthogonalLoop=1;jettySize=auto;html=1;exitX=0;exitY=0.5;exitDx=0;exitDy=0;entryX=0;entryY=1;entryDx=0;entryDy=0;" edge="1" parent="WIyWlLk6GJQsqaUBKTNV-1" source="T0vc6EYNenZj_TDjWAiG-68" target="T0vc6EYNenZj_TDjWAiG-73">
          <mxGeometry relative="1" as="geometry">
            <Array as="points">
              <mxPoint x="490" y="570" />
              <mxPoint x="490" y="570" />
            </Array>
          </mxGeometry>
        </mxCell>
      </root>
    </mxGraphModel>
  </diagram>
</mxfile>
